<svg width="541" height="541" viewBox="0 0 541 541" fill="none" xmlns="http://www.w3.org/2000/svg">
<path d="M521.634 521.553H19.3905V19.3027H521.634V521.553ZM0.493164 0.405371V540.451H540.532V0.405371H0.493164Z" fill="#9A9898"/>
<path d="M310.721 240.635C309.308 250.509 310.067 265.053 310.067 268.203C310.067 271.349 306.811 272.044 304.207 272.38C302.901 272.56 302.003 271.169 301.476 269.084C299.957 269.927 298.235 270.511 296.419 270.293C290.841 269.592 282.82 262.615 284.904 253.56C287.008 244.489 291.192 234.727 294.325 236.817C296.02 237.929 289.44 246.912 289.097 253.192C288.745 259.484 292.235 265.393 297.467 264.697C298.759 264.523 299.897 264.145 300.888 263.664C300.885 262.956 300.899 262.263 300.943 261.567C301.273 256.339 302.427 240.709 303.876 236.809C304.535 235.06 311.369 236.112 310.721 240.635ZM277.384 268.809C276.621 269.815 273.809 272.132 272.273 271.095C271.495 270.585 268.443 261.277 265.572 252.083C260.943 252.056 254.837 251.969 252.359 251.969C252.341 251.969 252.331 251.937 252.327 251.937C249.288 261.48 246.033 270.877 245.205 271.095C243.421 271.611 242.651 269.815 242.396 267.784C242.143 265.737 256.952 222.323 257.983 220.284C258.996 218.241 263.083 219.259 265.124 222.839C267.163 226.423 280.96 264.207 280.703 264.981C280.451 265.737 278.152 267.784 277.384 268.809ZM233.895 203.215V290.533H321.223V203.215H233.895Z" fill="#F4F0EE"/>
<path d="M501.857 458.847C501.857 460.908 499.8 462.581 497.261 462.581H65.8292C63.2932 462.581 61.2358 460.908 61.2358 458.847C61.2358 456.791 63.2932 455.117 65.8292 455.117H497.261C499.8 455.117 501.857 456.791 501.857 458.847Z" fill="#F5F0EE"/>
<path d="M167.923 325.22C172.952 330.253 135.683 338.384 131.732 367.332C127.024 401.889 163.97 417.332 170.548 419.307C177.131 421.28 181.079 420.624 175.158 429.173C169.235 437.723 168.576 444.308 150.814 437.071C133.048 429.829 98.8416 406.799 110.683 371.937C122.328 337.648 163.972 321.269 167.923 325.22Z" fill="#9A9898"/>
<path d="M251.019 426.653C245.668 421.608 242.041 414.856 240.26 411.064C245.032 397.235 246.039 383.837 243.884 383.624C239.424 383.176 236.081 381.836 232.736 390.085C229.388 398.332 212.224 429.107 204.196 423.304C200.368 420.537 192.757 417.888 211.333 391.871C228.052 368.457 244.5 372.005 244.108 368.235C243.663 363.995 225.828 364.227 203.083 386.969C180.34 409.715 186.583 441.757 211.108 441.372C221.605 441.209 229.424 433.277 234.892 423.351C237.212 432.876 243.135 443.769 251.24 439.14C260.601 433.792 258.824 434.007 251.019 426.653Z" fill="#9A9898"/>
<path d="M306.312 368.68C298.139 371.28 292.147 378.055 286.887 383.857C286.844 380.176 286.781 377.527 286.692 376.705C286.251 372.689 286.469 369.576 283.347 370.247C279.936 370.98 275.32 371.133 273.539 374.481C272.256 376.884 267.52 437.139 270.193 438.471C272.869 439.807 286.473 442.037 286.692 434.9C286.792 431.705 286.891 420.483 286.929 408.709C287.04 408.505 287.12 408.208 287.137 407.701C287.36 401.017 296.705 382.753 306.983 376.268C317.236 369.799 324.251 375.356 324.819 371.58C325.491 367.117 316.124 365.568 306.312 368.68Z" fill="#9A9898"/>
<path d="M365.927 368.504C357.749 371.104 351.762 377.879 346.5 383.677C346.456 379.999 346.396 377.349 346.3 376.528C345.862 372.512 346.085 369.396 342.956 370.068C339.549 370.801 334.937 370.957 333.15 374.303C331.866 376.705 327.13 436.961 329.804 438.293C332.485 439.629 346.085 441.859 346.3 434.729C346.398 431.527 346.5 420.311 346.542 408.532C346.654 408.328 346.732 408.036 346.747 407.525C346.975 400.84 356.317 382.576 366.594 376.092C376.848 369.621 383.868 375.177 384.437 371.403C385.098 366.94 375.736 365.391 365.927 368.504Z" fill="#9A9898"/>
<path d="M400.059 398.944C400.171 397.625 400.272 396.321 400.511 394.889C404.781 369.693 431.885 369.868 432.96 382.875C434.232 398.205 426.364 399.659 413.031 398.976C407.18 398.675 402.987 398.711 400.059 398.944ZM439.348 382.875C437.531 366.004 417.371 366.785 408.173 371.636C398.976 376.481 383.143 387.977 383.391 408.933C383.649 429.889 404.599 441.903 408.173 443.177C413.129 444.941 422.745 442.661 427.599 438.32C432.448 433.98 429.128 432.953 426.317 430.911C423.767 429.051 400.243 426.917 399.927 402.852C432.801 406.968 441.091 399.077 439.348 382.875Z" fill="#9A9898"/>
<path d="M175.927 325.891C175.945 326.343 175.94 326.797 175.885 327.253C175.589 329.737 174.464 331.628 172.679 333.352H402.277C405.732 330.605 408.915 328.079 411.692 325.891H175.927Z" fill="#F5F0EE"/>
<path d="M65.7082 325.891C63.1709 325.891 61.1162 327.564 61.1162 329.623C61.1162 331.681 63.1709 333.352 65.7082 333.352H130.36C134.003 330.5 137.714 328.005 141.335 325.891H65.7082Z" fill="#F5F0EE"/>
<path d="M497.138 325.891H441.768C442.78 327.868 443.893 330.564 444.096 333.352H497.138C499.676 333.352 501.737 331.681 501.737 329.623C501.737 327.564 499.676 325.891 497.138 325.891Z" fill="#F5F0EE"/>
<path d="M397.616 349.137C398.342 350.961 401.521 350.283 404.982 348.673C408.442 347.063 434.696 336.923 436.085 335.543C437.474 334.165 435.621 330.241 434.01 327.48C432.401 324.719 430.333 321.499 425.95 324.489C421.574 327.48 399.926 344.996 398.534 345.916C397.149 346.832 397.149 347.989 397.616 349.137Z" fill="#9A9898"/>
<path d="M181.071 105.323C184.516 103.949 187.921 102.944 191.287 102.307C194.651 101.671 197.861 101.408 200.92 101.52C201.408 99.9387 201.632 98.64 201.596 97.624C201.557 96.6094 201.143 95.9427 200.348 95.6227C196.871 94.3653 192.68 94.1854 187.772 95.08C182.865 95.976 177.712 97.76 172.312 100.432C166.913 103.104 161.485 106.54 156.029 110.741C150.575 114.941 145.612 119.709 141.141 125.041C136.672 130.375 132.9 136.196 129.828 142.503C126.756 148.812 124.885 155.379 124.219 162.207C124.463 163.452 124.879 164.425 125.469 165.128C126.057 165.832 126.733 166.313 127.496 166.573C128.257 166.833 129.079 166.927 129.957 166.851C130.836 166.776 131.687 166.583 132.508 166.271C132.868 161.613 133.779 157.085 135.244 152.684C136.708 148.284 138.603 144.064 140.924 140.024C143.245 135.985 145.939 132.195 149.004 128.655C152.071 125.116 155.365 121.849 158.893 118.853C158.308 123.793 157.755 129.329 157.232 135.46C156.709 141.593 156.343 148.001 156.133 154.685C155.923 161.371 155.957 168.148 156.235 175.017C156.512 181.887 157.145 188.499 158.131 194.852C158.487 196.571 159.243 197.871 160.396 198.753C161.548 199.637 162.717 200.108 163.903 200.168C165.088 200.225 166.116 199.875 166.991 199.111C167.864 198.347 168.201 197.177 168 195.601C166.873 187.64 166.109 180.355 165.709 173.744C165.311 167.136 165.183 160.873 165.328 154.953C165.472 149.037 165.832 143.227 166.408 137.524C166.983 131.824 167.663 125.871 168.452 119.664C168.548 118.612 168.352 117.86 167.864 117.405C167.377 116.952 166.719 116.671 165.892 116.564C165.061 116.456 164.195 116.487 163.292 116.652C162.387 116.819 161.583 117.025 160.877 117.271C164.039 114.715 167.332 112.427 170.76 110.409C174.187 108.395 177.625 106.699 181.071 105.323Z" fill="white"/>
<path d="M411.063 161.884C410.06 162.856 408.779 163.828 407.223 164.799C405.665 165.772 403.973 166.68 402.143 167.525C400.313 168.372 398.397 169.084 396.397 169.665C394.395 170.247 392.425 170.64 390.488 170.845C389.327 170.969 388.397 171.22 387.707 171.599C387.015 171.979 386.571 172.38 386.373 172.804C386.176 173.229 386.253 173.615 386.609 173.964C386.961 174.312 387.604 174.519 388.533 174.58C391.076 174.656 393.384 174.605 395.459 174.424C397.532 174.245 399.509 173.873 401.392 173.311C403.273 172.748 405.119 171.985 406.932 171.02C408.743 170.056 410.703 168.885 412.817 167.508C414.313 166.508 415.655 165.325 416.841 163.96C418.028 162.595 418.868 161.18 419.365 159.716C419.86 158.251 419.953 156.859 419.648 155.536C419.339 154.215 418.469 153.111 417.04 152.225C414.908 150.943 412.149 150.416 408.764 150.648C405.376 150.881 401.788 151.665 398 153.001C394.211 154.336 390.425 156.061 386.645 158.173C382.863 160.287 379.52 162.531 376.613 164.901C373.707 167.273 371.457 169.656 369.868 172.048C369.737 172.245 369.659 172.429 369.541 172.623C368.552 173.091 367.583 173.511 366.657 173.832C365.177 174.348 363.911 174.504 362.86 174.3C361.937 174.132 361.335 173.924 361.053 173.679C360.771 173.433 360.681 173.116 360.783 172.728C360.883 172.339 361.133 171.904 361.535 171.421C361.935 170.939 362.348 170.407 362.775 169.825C363.805 168.505 365.212 166.868 366.997 164.912C368.779 162.957 370.644 160.884 372.591 158.696C374.537 156.507 376.483 154.317 378.431 152.129C380.376 149.94 382.064 147.891 383.489 145.981C384.915 144.072 385.945 142.423 386.58 141.033C387.215 139.644 387.251 138.705 386.689 138.213C386.351 137.919 385.891 137.559 385.312 137.133C384.731 136.708 384.093 136.3 383.4 135.913C382.705 135.527 382.032 135.197 381.379 134.924C380.724 134.652 380.152 134.523 379.667 134.535C377.997 134.587 376.055 135.153 373.841 136.237C371.628 137.323 369.327 138.679 366.939 140.304C364.552 141.931 362.163 143.695 359.772 145.596C357.381 147.497 355.24 149.308 353.347 151.027C355.653 148.243 357.929 145.517 360.172 142.851C362.413 140.187 364.551 137.46 366.584 134.672C366.945 134.076 366.759 133.527 366.027 133.025C365.291 132.525 364.359 132.129 363.227 131.836C362.093 131.544 360.957 131.405 359.813 131.42C358.671 131.435 357.901 131.668 357.511 132.119C355.396 134.955 353.039 138.004 350.435 141.265C349.536 142.389 348.606 143.533 347.699 144.664C347.439 144.875 347.22 145.147 347.041 145.48C345.531 147.359 344.036 149.228 342.5 151.123C341.357 152.531 340.252 153.917 339.124 155.316C337.476 156.961 335.753 158.517 333.957 159.984C332.144 161.463 330.37 162.711 328.632 163.727C326.895 164.743 325.255 165.448 323.708 165.844C322.161 166.24 320.873 166.189 319.847 165.692C318.944 165.275 318.595 164.32 318.799 162.829C319.002 161.337 319.548 159.575 320.439 157.543C321.329 155.509 322.513 153.369 323.995 151.121C325.473 148.875 327.024 146.768 328.648 144.801C330.269 142.836 331.9 141.156 333.537 139.761C335.175 138.368 336.64 137.561 337.935 137.344C338.728 136.747 338.86 136.036 338.331 135.216C337.801 134.396 336.979 133.667 335.863 133.027C334.747 132.389 333.528 131.943 332.209 131.688C330.889 131.433 329.869 131.575 329.151 132.113C327.208 133.547 325.296 134.816 323.417 135.919C321.539 137.023 319.891 137.796 318.475 138.236C317.059 138.677 315.981 138.713 315.244 138.344C314.505 137.975 314.273 137.032 314.547 135.512C315.793 135.089 317.176 134.443 318.7 133.575C320.221 132.708 321.505 131.684 322.553 130.504C324.036 128.963 324.916 127.397 325.196 125.813C325.475 124.227 324.747 123.02 323.009 122.191C321.073 121.344 319.052 121.243 316.947 121.889C314.84 122.537 312.899 123.583 311.123 125.032C309.347 126.48 307.82 128.137 306.543 130C305.265 131.864 304.493 133.521 304.227 134.973C303.881 136.552 303.728 138.032 303.771 139.411C303.792 140.108 303.945 140.729 304.228 141.28C302.851 144.208 301.288 146.932 299.492 149.408C296.917 152.892 294.291 155.76 291.613 158.008C288.937 160.259 286.444 161.933 284.136 163.036C281.827 164.139 279.769 164.632 277.96 164.516C276.152 164.401 274.827 163.687 273.988 162.373C273.148 161.06 272.857 159.145 273.121 156.631C273.383 154.116 274.431 150.995 276.264 147.264C277.527 144.688 279.075 142.119 280.907 139.559C282.74 137 284.546 134.725 286.33 132.735C288.111 130.745 289.755 129.193 291.261 128.08C292.765 126.969 293.824 126.537 294.433 126.787C295.111 127.103 295.464 127.744 295.492 128.712C295.519 129.681 295.301 130.823 294.837 132.14C294.373 133.457 293.663 134.899 292.704 136.464C291.745 138.031 290.637 139.599 289.379 141.172C288.119 142.747 286.724 144.241 285.195 145.655C283.663 147.069 282.076 148.301 280.435 149.351C279.449 149.981 278.732 150.621 278.283 151.268C277.833 151.917 277.616 152.475 277.63 152.941C277.643 153.411 277.885 153.721 278.357 153.873C278.829 154.028 279.496 153.925 280.355 153.565C282.664 152.497 284.707 151.42 286.481 150.332C288.255 149.245 289.857 148.029 291.292 146.684C292.723 145.34 294.033 143.832 295.224 142.159C296.412 140.487 297.644 138.564 298.92 136.387C299.811 134.824 300.483 133.167 300.935 131.415C301.385 129.664 301.504 128.023 301.295 126.489C301.084 124.959 300.545 123.671 299.68 122.624C298.813 121.581 297.543 120.981 295.867 120.828C293.387 120.633 290.684 121.395 287.759 123.116C284.832 124.839 281.972 127.143 279.181 130.031C278.511 130.724 277.851 131.44 277.2 132.173C277.011 131.964 276.792 131.788 276.519 131.68C275.585 131.312 274.391 131.236 272.937 131.451C272.011 131.588 271.027 131.785 269.985 132.041C268.941 132.296 267.909 132.517 266.891 132.701C265.869 132.888 264.908 132.996 264 133.029C263.092 133.063 262.277 132.929 261.559 132.631C262.443 131.757 263.488 130.607 264.695 129.176C265.903 127.748 266.877 126.235 267.621 124.637C268.364 123.043 268.683 121.44 268.58 119.833C268.477 118.227 267.559 116.811 265.823 115.58C264.449 115.447 263.041 115.74 261.595 116.46C260.147 117.181 258.775 118.18 257.477 119.452C256.18 120.727 255.044 122.179 254.069 123.809C253.095 125.44 252.387 127.048 251.947 128.633C251.505 130.219 251.395 131.74 251.609 133.193C251.825 134.648 252.467 135.803 253.541 136.656C251.791 143.539 249.599 149.268 246.967 153.847C244.336 158.427 241.535 162.321 238.564 165.531C237.465 166.775 236.609 167.612 235.997 168.04C235.385 168.469 234.931 168.367 234.635 167.735C234.339 167.104 234.155 165.864 234.083 164.016C234.012 162.169 233.996 159.553 234.036 156.168C234.067 151.367 234.764 146.62 236.131 141.923C237.495 137.228 239.329 132.176 241.637 126.767C241.717 125.943 241.332 125.392 240.48 125.113C239.628 124.835 238.605 124.783 237.416 124.96C236.225 125.136 235.064 125.495 233.927 126.033C232.791 126.575 232.007 127.215 231.576 127.953C230.393 131.372 229.272 135.085 228.211 139.093C227.148 143.101 226.36 147.12 225.843 151.149C225.828 151.26 225.821 151.369 225.809 151.479C225.597 152.264 225.365 153.052 225.109 153.844C224.095 156.995 222.931 159.841 221.621 162.381C220.312 164.925 218.973 166.984 217.611 168.563C216.247 170.141 215.053 170.864 214.032 170.725C213.008 170.589 212.276 169.417 211.836 167.208C211.395 165.001 211.447 161.397 211.993 156.399L214.127 141.983C214.183 141.267 213.868 140.593 213.185 139.965C212.499 139.339 211.693 138.943 210.767 138.775C209.84 138.609 208.936 138.68 208.052 138.989C207.167 139.3 206.609 139.98 206.377 141.032C205.497 144.736 204.563 148.595 203.572 152.612C202.581 156.631 201.423 160.56 200.097 164.4C199.464 166.417 198.735 168.289 197.905 170.016C197.079 171.743 196.253 173.259 195.435 174.563C194.615 175.868 193.812 176.941 193.023 177.78C192.235 178.62 191.509 179.108 190.852 179.241C190.031 179.077 189.476 178.357 189.185 177.083C188.893 175.809 188.795 174.196 188.887 172.241C188.979 170.288 189.247 168.053 189.689 165.536C190.131 163.02 190.692 160.484 191.367 157.928C192.043 155.373 192.833 152.852 193.741 150.365C194.648 147.88 195.596 145.643 196.589 143.655C197.58 141.667 198.375 140.231 198.976 139.343C199.575 138.457 200.095 137.876 200.533 137.599C200.973 137.324 201.343 137.279 201.647 137.464C201.948 137.649 202.299 137.821 202.697 137.976C202.989 138.236 203.459 138.231 204.109 137.957C204.759 137.687 205.353 137.292 205.893 136.773C206.431 136.256 206.756 135.665 206.864 135.001C206.973 134.337 206.632 133.745 205.839 133.221C204.065 132.023 202.348 131.507 200.687 131.672C199.021 131.84 197.439 132.489 195.937 133.621C194.435 134.755 193.04 136.237 191.756 138.071C190.471 139.905 189.279 141.921 188.177 144.117C187.075 146.315 186.093 148.561 185.232 150.859C184.372 153.157 183.656 155.304 183.088 157.299C182.469 159.591 181.835 162.168 181.187 165.029C180.535 167.892 180.099 170.652 179.875 173.311C179.652 175.969 179.709 178.296 180.049 180.289C180.389 182.284 181.24 183.56 182.604 184.115C186.292 185.629 189.627 185.431 192.604 183.527C195.581 181.623 198.184 178.399 200.412 173.856C200.896 172.936 201.279 172.029 201.561 171.136C201.844 170.245 202.163 169.359 202.519 168.477C202.628 169.283 202.772 170.025 202.949 170.705C203.124 171.385 203.324 172.077 203.541 172.779C204.343 174.909 205.523 176.451 207.077 177.4C208.633 178.352 210.731 178.347 213.372 177.387C216.14 176.387 218.555 174.587 220.617 171.985C222.541 169.559 224.203 166.848 225.621 163.875C225.983 167.288 226.807 170.393 228.141 173.156C228.523 173.911 229.171 174.405 230.084 174.643C230.996 174.877 232.015 174.913 233.141 174.747C234.264 174.58 235.464 174.249 236.744 173.756C238.021 173.263 239.181 172.668 240.229 171.973C242.396 170.639 244.465 168.76 246.437 166.34C248.409 163.919 250.221 161.219 251.875 158.237C253.527 155.256 255.035 152.093 256.397 148.749C257.76 145.405 258.915 142.144 259.863 138.963C261.888 139.407 263.908 139.479 265.925 139.18C267.941 138.88 270.031 138.504 272.194 138.048C272.342 138.012 272.469 137.973 272.611 137.936C272.183 138.529 271.752 139.119 271.335 139.732C268.895 143.312 266.907 146.813 265.367 150.233C263.825 153.655 262.879 156.791 262.525 159.641C262.173 162.495 262.651 164.603 263.961 165.969C265.133 167.273 266.496 168.171 268.049 168.66C269.6 169.151 271.147 169.475 272.691 169.631C275.908 169.94 279.22 169.444 282.627 168.144C286.032 166.843 289.339 164.928 292.541 162.395C295.745 159.863 298.701 156.82 301.408 153.265C303.721 150.228 305.665 146.967 307.284 143.507C308.219 143.761 309.345 143.908 310.709 143.92C313.156 143.941 316.649 143.355 321.188 142.157C319.777 143.64 318.439 145.264 317.171 147.025C315.901 148.789 314.747 150.58 313.711 152.397C312.672 154.216 311.84 155.969 311.216 157.657C310.592 159.347 310.221 160.855 310.1 162.185C309.887 164.516 310.268 166.396 311.245 167.827C312.221 169.26 313.963 170.223 316.468 170.72C319.499 171.332 322.576 171.076 325.699 169.951C326.694 169.593 327.668 169.171 328.633 168.719C328.281 169.199 327.924 169.681 327.587 170.151C327.763 170.541 328.271 170.913 329.111 171.269C329.951 171.624 330.86 171.911 331.839 172.129C332.819 172.348 333.717 172.476 334.536 172.516C335.353 172.556 335.836 172.423 335.985 172.115C337.461 169.873 339.487 167.447 342.061 164.832C344.636 162.22 347.432 159.681 350.451 157.216C353.471 154.753 356.508 152.413 359.566 150.201C362.623 147.989 365.373 146.164 367.816 144.724C370.259 143.285 372.187 142.3 373.603 141.768C375.017 141.237 375.615 141.392 375.397 142.232C374.116 144.248 372.408 146.517 370.273 149.036C368.136 151.556 365.851 154.123 363.416 156.737C360.979 159.353 358.553 161.987 356.141 164.641C353.729 167.297 351.607 169.769 349.772 172.056C348.819 173.604 348.709 174.767 349.44 175.541C350.172 176.319 351.248 177.027 352.669 177.672C355.461 179.152 358.636 179.628 362.189 179.097C364.189 178.799 366.193 178.271 368.201 177.56C368.237 177.824 368.245 178.097 368.324 178.351C368.791 180.041 369.609 181.453 370.779 182.585C371.948 183.717 373.187 184.697 374.497 185.528C377.237 187.243 380.423 188.279 384.052 188.637C387.679 188.996 391.493 188.759 395.491 187.924C399.488 187.091 403.492 185.689 407.501 183.719C411.511 181.749 415.221 179.309 418.637 176.399C419.339 175.84 419.681 175.3 419.667 174.777C419.649 174.255 419.459 173.835 419.092 173.515C418.723 173.197 418.24 173.048 417.644 173.064C417.045 173.081 416.484 173.337 415.961 173.831C413.243 176.033 410.428 177.893 407.511 179.413C403.651 181.379 400.02 182.771 396.621 183.585C393.22 184.403 390.241 184.788 387.684 184.741C385.124 184.696 383.064 184.219 381.497 183.307C379.931 182.396 379.065 181.165 378.901 179.613C378.737 178.064 379.332 176.223 380.693 174.089C382.049 171.957 384.381 169.632 387.689 167.115C389.971 165.375 392.504 163.768 395.287 162.296C398.069 160.825 400.701 159.599 403.185 158.615C405.668 157.631 407.832 156.977 409.677 156.655C411.521 156.332 412.661 156.42 413.095 156.915C413.559 157.5 413.588 158.232 413.18 159.109C412.772 159.989 412.065 160.913 411.063 161.884Z" fill="white"/>
</svg>
