<svg width="1112" height="1052" viewBox="0 0 1112 1052" fill="none" xmlns="http://www.w3.org/2000/svg">
<g clip-path="url(#clip0_93_61)">
<path d="M1062.99 876.648L186.337 1051.01L11.9891 174.324L888.639 -0.00264732L1062.99 876.648Z" fill="#150000"/>
<path d="M984.413 982.219H90.5953V88.3879H984.413V982.219Z" fill="#5C111A"/>
<path d="M281.065 391.608H148.712V259.256H281.065V391.608Z" fill="#A6965B"/>
<path d="M447.821 391.608H315.463V259.256H447.821V391.608Z" fill="#ED4E1C"/>
<path d="M614.577 391.608H482.211V259.256H614.577V391.608Z" fill="#211D1D"/>
<path d="M781.329 391.608H648.972V259.256H781.329V391.608Z" fill="#ED4E1C"/>
<path d="M948.085 391.608H815.721V259.256H948.085V391.608Z" fill="#A6965B"/>
<path d="M511.48 328.919C514.923 317.925 517.933 307.581 518.721 304.095C519.427 300.885 521.417 304.487 521.815 305.659C521.984 306.168 525.208 317.048 528.932 329.135L511.48 328.919ZM529.547 289C526.452 283.573 520.259 282.031 518.721 285.127C517.159 288.217 494.712 354.023 495.097 357.127C495.483 360.204 496.651 362.925 499.356 362.144C500.611 361.813 505.543 347.571 510.148 333.107C510.155 333.107 510.172 333.156 510.199 333.156C513.955 333.156 523.208 333.287 530.225 333.325C534.576 347.263 539.204 361.372 540.383 362.144C542.712 363.716 546.975 360.204 548.129 358.68C549.293 357.127 552.779 354.023 553.16 352.876C553.549 351.704 532.637 294.433 529.547 289Z" fill="#F4F0EE"/>
<path d="M598.66 315.973C599.643 309.12 589.283 307.525 588.285 310.176C586.087 316.087 584.34 339.779 583.84 347.703C583.772 348.756 583.751 349.808 583.756 350.881C582.253 351.609 580.529 352.183 578.571 352.448C570.64 353.501 565.351 344.545 565.884 335.007C566.403 325.489 576.376 311.875 573.808 310.189C569.06 307.019 562.717 321.817 559.528 335.565C556.369 349.291 568.528 359.865 576.983 360.928C579.735 361.257 582.347 360.375 584.648 359.096C585.445 362.257 586.807 364.365 588.785 364.092C592.733 363.583 597.668 362.529 597.668 357.76C597.668 352.987 596.517 330.943 598.66 315.973Z" fill="#F4F0EE"/>
<path d="M20.0489 883.104C9.16355 883.104 0.30365 890.989 0.30365 900.689C0.30365 910.409 9.16355 918.288 20.0489 918.288H1091.58C1102.48 918.288 1111.33 910.409 1111.33 900.689C1111.33 890.989 1102.48 883.104 1091.58 883.104H20.0489Z" fill="#221D1D"/>
<path d="M1103 900.689C1103 905.808 1097.88 909.965 1091.58 909.965H20.049C13.7495 909.965 8.64221 905.808 8.64221 900.689C8.64221 895.584 13.7495 891.427 20.049 891.427H1091.58C1097.88 891.427 1103 895.584 1103 900.689Z" fill="#F5F0EE"/>
<path d="M19.7495 562.145C8.85521 562.145 0 570.029 0 579.743C0 589.448 8.85521 597.343 19.7495 597.343H1091.27C1102.18 597.343 1111.02 589.448 1111.02 579.743C1111.02 570.029 1102.18 562.145 1091.27 562.145H19.7495Z" fill="#221D1D"/>
<path d="M1102.7 579.743C1102.7 584.853 1097.58 589.004 1091.27 589.004H19.7495C13.4459 589.004 8.34479 584.853 8.34479 579.743C8.34479 574.625 13.4459 570.471 19.7495 570.471H1091.27C1097.58 570.471 1102.7 574.625 1102.7 579.743Z" fill="#F5F0EE"/>
<path d="M283.419 571.264C295.912 583.763 203.345 603.944 193.541 675.851C181.833 761.673 273.605 800.025 289.947 804.928C306.291 809.836 316.092 808.203 301.381 829.449C286.687 850.683 285.048 867.037 240.923 849.053C196.803 831.069 111.836 773.872 141.251 687.28C170.176 602.119 273.613 561.452 283.419 571.264Z" fill="#211D1D"/>
<path d="M489.799 823.191C476.515 810.663 467.504 793.875 463.08 784.471C474.931 750.112 477.435 716.847 472.079 716.305C461 715.195 452.703 711.868 444.387 732.356C436.079 752.851 393.44 829.271 373.509 814.872C364.004 808.004 345.093 801.407 391.237 736.8C432.757 678.639 473.613 687.453 472.631 678.085C471.536 667.555 427.235 668.135 370.747 724.615C314.259 781.115 329.767 860.691 390.677 859.743C416.745 859.333 436.169 839.628 449.755 814.987C455.507 838.632 470.225 865.687 490.348 854.204C513.609 840.908 509.179 841.455 489.799 823.191Z" fill="#211D1D"/>
<path d="M627.128 679.197C606.832 685.647 591.943 702.487 578.879 716.887C578.777 707.753 578.631 701.165 578.404 699.137C577.308 689.16 577.851 681.432 570.091 683.093C561.627 684.901 550.163 685.285 545.729 693.604C542.551 699.581 530.785 849.223 537.432 852.541C544.068 855.844 577.861 861.385 578.404 843.671C578.641 835.723 578.893 807.865 578.992 778.621C579.264 778.104 579.471 777.38 579.501 776.107C580.06 759.511 603.268 714.141 628.792 698.041C654.257 681.984 671.685 695.784 673.091 686.401C674.752 675.311 651.493 671.463 627.128 679.197Z" fill="#211D1D"/>
<path d="M775.196 678.765C754.887 685.209 740.008 702.047 726.949 716.443C726.836 707.312 726.68 700.721 726.449 698.693C725.365 688.716 725.92 680.983 718.136 682.652C709.681 684.457 698.233 684.845 693.783 693.16C690.609 699.137 678.857 848.777 685.477 852.097C692.143 855.405 725.92 860.945 726.449 843.233C726.701 835.279 726.949 807.421 727.047 778.181C727.336 777.664 727.527 776.94 727.557 775.669C728.12 759.071 751.331 713.715 776.857 697.597C802.325 681.54 819.739 695.34 821.168 685.955C822.815 674.867 799.565 671.019 775.196 678.765Z" fill="#211D1D"/>
<path d="M859.959 754.355C860.245 751.08 860.5 747.843 861.088 744.287C871.704 681.708 939.008 682.156 941.684 714.443C944.845 752.521 925.301 756.147 892.177 754.435C877.648 753.687 867.235 753.791 859.959 754.355ZM957.539 714.443C953.02 672.559 902.967 674.485 880.123 686.531C857.289 698.58 817.94 727.131 818.577 779.18C819.213 831.227 871.239 861.053 880.123 864.217C892.435 868.6 916.312 862.935 928.357 852.153C940.411 841.371 932.168 838.825 925.189 833.753C918.849 829.131 860.424 823.831 859.643 764.075C941.289 774.299 961.867 754.685 957.539 714.443Z" fill="#211D1D"/>
<path d="M853.884 630.653C855.707 635.199 863.601 633.511 872.196 629.5C880.791 625.508 946.005 600.332 949.444 596.903C952.888 593.465 948.296 583.72 944.292 576.865C940.296 570.016 935.16 562.005 924.276 569.436C913.405 576.865 859.643 620.379 856.188 622.653C852.741 624.928 852.741 627.804 853.884 630.653Z" fill="#221D1D"/>
<path d="M273.613 568.805C286.107 581.307 193.541 601.5 183.729 673.397C172.036 759.228 263.797 797.58 280.137 802.484C296.483 807.388 306.291 805.759 291.584 826.991C276.875 848.224 275.236 864.579 231.121 846.604C186.996 828.619 102.039 771.419 131.449 684.836C160.372 599.672 263.804 558.993 273.613 568.805Z" fill="#F4F0EE"/>
<path d="M479.997 820.732C466.707 808.203 457.7 791.432 453.276 782.012C465.129 747.665 467.629 714.392 462.276 713.861C451.201 712.749 442.899 709.42 434.589 729.908C426.275 750.392 383.643 826.824 363.704 812.413C354.199 805.543 335.296 798.963 381.432 734.343C422.955 676.192 463.808 685.005 462.833 675.641C461.727 665.109 417.431 665.684 360.941 722.171C304.455 778.66 319.959 858.245 380.875 857.287C406.944 856.885 426.363 837.184 439.944 812.527C445.705 836.188 460.416 863.243 480.547 851.745C503.797 838.461 499.381 838.996 479.997 820.732Z" fill="#F4F0EE"/>
<path d="M617.327 676.747C597.027 683.203 582.144 700.029 569.079 714.441C568.976 705.297 568.819 698.717 568.596 696.679C567.501 686.703 568.045 678.971 560.288 680.636C551.817 682.457 540.355 682.839 535.929 691.153C532.743 697.123 520.98 846.773 527.62 850.081C534.267 853.4 568.053 858.941 568.596 841.213C568.844 833.279 569.091 805.407 569.187 776.165C569.463 775.659 569.659 774.921 569.704 773.66C570.256 757.06 593.467 711.697 618.991 695.591C644.46 679.524 661.879 693.328 663.291 683.949C664.961 672.865 641.697 669.016 617.327 676.747Z" fill="#F4F0EE"/>
<path d="M765.388 676.307C745.08 682.765 730.212 699.591 717.14 713.993C717.029 704.857 716.881 698.277 716.644 696.237C715.556 686.263 716.109 678.524 708.339 680.192C699.876 682.013 688.424 682.401 683.984 690.709C680.796 696.679 669.035 846.332 675.672 849.643C682.333 852.961 716.109 858.497 716.644 840.789C716.888 832.835 717.14 804.979 717.245 775.725C717.525 775.216 717.715 774.492 717.753 773.223C718.319 756.62 741.524 711.257 767.048 695.153C792.513 679.083 809.951 692.884 811.363 683.507C813.007 672.424 789.753 668.575 765.388 676.307Z" fill="#F4F0EE"/>
<path d="M850.16 751.912C850.44 748.636 850.691 745.396 851.283 741.841C861.892 679.261 929.208 679.697 931.879 711.999C935.039 750.075 915.496 753.687 882.38 751.989C867.849 751.243 857.433 751.332 850.16 751.912ZM947.743 711.999C943.229 670.1 893.16 672.04 870.316 684.087C847.473 696.12 808.147 724.673 808.765 776.72C809.408 828.771 861.437 858.605 870.316 861.771C882.624 866.152 906.507 860.488 918.56 849.709C930.605 838.927 922.36 836.377 915.379 831.307C909.044 826.684 850.617 821.387 849.835 761.616C931.481 771.84 952.072 752.241 947.743 711.999Z" fill="#F4F0EE"/>
<path d="M844.093 628.209C845.9 632.74 853.796 631.055 862.391 627.057C870.984 623.057 936.189 597.873 939.639 594.444C943.092 591.021 938.488 581.276 934.487 574.419C930.489 567.56 925.353 559.561 914.469 566.991C903.6 574.419 849.835 617.921 846.376 620.208C842.936 622.481 842.936 625.356 844.093 628.209Z" fill="#F5F0EE"/>
<path d="M214.899 531.335C214.899 536.203 210.948 540.14 206.073 540.14C201.212 540.14 197.251 536.203 197.251 531.335C197.251 526.467 201.212 522.507 206.073 522.507C210.948 522.507 214.899 526.467 214.899 531.335Z" fill="#221D1D"/>
<path d="M155.511 861.212C155.511 866.072 151.545 870.023 146.681 870.023C141.82 870.023 137.876 866.072 137.876 861.212C137.876 856.344 141.82 852.381 146.681 852.381C151.545 852.381 155.511 856.344 155.511 861.212Z" fill="#221D1D"/>
<path d="M623.025 628.324C623.025 633.184 619.036 637.125 614.172 637.125C609.308 637.125 605.371 633.184 605.371 628.324C605.371 623.456 609.308 619.491 614.172 619.491C619.036 619.491 623.025 623.456 623.025 628.324Z" fill="#221D1D"/>
<path d="M605.371 856.48C605.371 861.351 601.38 865.292 596.517 865.292C591.652 865.292 587.715 861.351 587.715 856.48C587.715 851.627 591.652 847.657 596.517 847.657C601.38 847.657 605.371 851.627 605.371 856.48Z" fill="#221D1D"/>
<path d="M755.296 856.539C755.296 861.407 751.304 865.348 746.443 865.348C741.576 865.348 737.639 861.407 737.639 856.539C737.639 851.679 741.576 847.716 746.443 847.716C751.304 847.716 755.296 851.679 755.296 856.539Z" fill="#221D1D"/>
<path d="M945.817 791.853C945.817 796.72 941.841 800.664 936.971 800.664C932.113 800.664 928.165 796.72 928.165 791.853C928.165 786.992 932.113 783.035 936.971 783.035C941.841 783.035 945.817 786.992 945.817 791.853Z" fill="#221D1D"/>
<path d="M787.652 627.135C787.652 631.995 783.673 635.948 778.805 635.948C773.945 635.948 769.996 631.995 769.996 627.135C769.996 622.267 773.945 618.307 778.805 618.307C783.673 618.307 787.652 622.267 787.652 627.135Z" fill="#221D1D"/>
<path d="M236.107 728.276C236.107 733.145 232.121 737.087 227.267 737.087C222.393 737.087 218.455 733.145 218.455 728.276C218.455 723.417 222.393 719.453 227.267 719.453C232.121 719.453 236.107 723.417 236.107 728.276Z" fill="#221D1D"/>
<path d="M208.959 528.556C208.959 533.416 205.004 537.369 200.125 537.369C195.264 537.369 191.311 533.416 191.311 528.556C191.311 523.684 195.264 519.725 200.125 519.725C205.004 519.725 208.959 523.684 208.959 528.556Z" fill="#F5F0EE"/>
<path d="M149.563 858.439C149.563 863.299 145.601 867.24 140.737 867.24C135.876 867.24 131.928 863.299 131.928 858.439C131.928 853.571 135.876 849.605 140.737 849.605C145.601 849.605 149.563 853.571 149.563 858.439Z" fill="#F5F0EE"/>
<path d="M617.077 625.541C617.077 630.408 613.091 634.348 608.228 634.348C603.364 634.348 599.425 630.408 599.425 625.541C599.425 620.681 603.364 616.719 608.228 616.719C613.091 616.719 617.077 620.681 617.077 625.541Z" fill="#F5F0EE"/>
<path d="M599.432 853.707C599.432 858.563 595.447 862.517 590.585 862.517C585.723 862.517 581.773 858.563 581.773 853.707C581.773 848.835 585.723 844.871 590.585 844.871C595.447 844.871 599.432 848.835 599.432 853.707Z" fill="#F5F0EE"/>
<path d="M749.363 853.759C749.363 858.633 745.372 862.575 740.505 862.575C735.648 862.575 731.693 858.633 731.693 853.759C731.693 848.905 735.648 844.929 740.505 844.929C745.372 844.929 749.363 848.905 749.363 853.759Z" fill="#F5F0EE"/>
<path d="M939.885 789.073C939.885 793.947 935.908 797.888 931.043 797.888C926.18 797.888 922.228 793.947 922.228 789.073C922.228 784.219 926.18 780.255 931.043 780.255C935.908 780.255 939.885 784.219 939.885 789.073Z" fill="#F5F0EE"/>
<path d="M781.717 624.361C781.717 629.219 777.729 633.163 772.865 633.163C768.004 633.163 764.06 629.219 764.06 624.361C764.06 619.491 768.004 615.529 772.865 615.529C777.729 615.529 781.717 619.491 781.717 624.361Z" fill="#F5F0EE"/>
<path d="M230.163 725.503C230.163 730.369 226.18 734.313 221.316 734.313C216.455 734.313 212.508 730.369 212.508 725.503C212.508 720.639 216.455 716.68 221.316 716.68C226.18 716.68 230.163 720.639 230.163 725.503Z" fill="#F5F0EE"/>
<path d="M275.044 121.279C278.928 121.279 283.277 123.307 283.277 127.951C283.277 132.463 278.152 134.944 276.603 135.257C274.736 135.563 274.893 134.476 275.201 133.705C275.669 132.612 275.819 132.307 275.819 131.371C275.819 130.436 274.893 129.192 272.56 129.192C265.885 129.192 257.035 135.868 251.144 143.171C244.005 152.635 237.477 165.211 237.477 177.16C237.477 184.459 241.201 188.024 247.104 188.024C262.011 188.024 279.393 174.061 282.811 171.419C285.137 169.561 286.068 171.111 284.975 173.596C283.733 176.073 276.603 183.219 265.579 189.265C257.821 193.765 250.212 196.259 242.911 196.259C232.363 196.259 228.323 186.784 228.323 177.009C228.323 158.695 243.231 133.705 263.403 124.227C268.219 121.901 271.627 121.279 274.893 121.279H275.044Z" fill="white"/>
<path d="M314.625 148.136C312.459 148.136 309.192 150.928 304.999 156.053C297.551 164.744 293.209 175.303 291.663 180.887C290.725 183.836 291.344 186.167 293.359 186.167C294.6 186.167 296.936 184.459 299.885 181.817C302.517 179.337 306.868 173.901 311.525 167.695C313.384 165.053 316.651 158.376 317.267 157.297C317.892 155.747 318.349 153.411 318.04 151.556C317.732 149.685 316.801 148.136 314.784 148.136H314.625ZM319.135 139.756C320.683 139.756 322.235 141.62 323.165 142.861C323.327 143.476 323.939 143.636 324.568 143.171C325.649 142.392 326.583 142.392 327.519 143.013C329.84 144.412 329.683 145.963 328.908 147.512C324.249 157.763 321.299 166.76 321.299 175.611C321.299 182.593 322.235 187.716 325.959 187.716C332.484 187.716 344.591 173.753 352.041 163.503C352.965 161.953 354.367 162.104 354.367 163.345C354.367 164.744 353.899 166.611 352.965 168.775C347.223 180.108 330.924 195.793 322.857 195.793C319.135 195.793 314.625 190.975 314.008 184.608C313.703 181.352 313.54 177.009 313.54 175.303C313.54 174.208 313.235 174.061 312.304 174.996C310.127 177.936 301.433 187.556 297.241 191.136C293.517 194.395 290.569 195.793 288.244 195.793C286.841 195.793 281.719 193.924 281.719 188.185C281.719 185.543 282.652 180.573 287.62 171.26C291.663 163.195 298.948 152.797 306.56 146.269C312.916 140.528 317.267 139.756 318.973 139.756H319.135Z" fill="white"/>
<path d="M392.237 103.124C393.947 103.124 395.507 103.431 396.589 104.365C397.673 105.445 397.673 107.155 396.427 109.02C395.345 110.572 393.635 111.816 391.772 111.816C378.885 111.652 368.648 123.451 362.748 144.253C362.441 145.653 362.748 145.812 363.829 145.653C375.788 144.571 382.305 143.013 388.833 141.155C392.237 140.063 391.772 142.392 389.447 143.941C381.061 149.071 364.456 152.484 361.665 152.941C360.265 153.263 360.105 153.876 359.651 155.425C358.864 158.695 354.835 172.66 353.283 178.867C347.541 201.843 342.881 214.883 338.384 225.124C334.193 234.597 327.665 246.081 318.04 249.339C316.801 249.808 315.409 249.967 314.168 249.967C312.928 249.967 311.991 249.808 311.217 249.189C310.284 248.097 310.444 246.389 312.143 244.216C314.636 240.804 316.025 239.875 317.732 239.405C326.583 236.616 331.391 230.405 338.223 207.435C340.548 200.133 347.692 171.419 351.105 155.277C351.416 153.725 350.948 153.568 349.864 153.568C345.981 153.263 344.591 151.399 344.591 150.312C344.591 149.377 345.516 148.136 346.755 147.512C348.157 146.735 350.024 146.428 352.509 146.269C353.283 146.269 353.591 145.812 354.056 144.571C359.185 129.513 365.7 118.952 375.163 111.504C381.997 106.072 388.363 103.124 392.089 103.124H392.237Z" fill="white"/>
<path d="M395.031 132.769C395.031 132.143 395.495 131.371 396.733 130.128C399.845 127.18 404.503 122.68 411.637 113.988C413.193 111.973 414.435 110.879 416.144 110.879C417.853 110.879 419.243 111.816 420.337 113.215C421.579 114.603 421.116 116.165 419.551 117.551C407.604 129.044 399.996 132.769 397.981 133.385C396.427 133.856 395.031 133.856 395.031 132.92V132.769ZM389.597 166.148C397.203 166.148 404.345 160.083 404.345 153.876C404.345 150.152 402.168 148.136 400.156 148.136C396.268 148.136 390.061 158.695 387.576 164.583C387.113 165.677 387.428 166.148 389.447 166.148H389.597ZM374.083 181.975C374.083 176.073 378.113 164.744 384.165 154.972C386.648 151.085 395.345 139.441 400.929 139.441C403.104 139.441 404.188 140.833 404.345 142.235C404.345 142.704 404.811 143.319 406.053 143.636C409.623 143.784 412.423 146.428 412.423 151.085C412.423 155.892 410.245 161.019 407.295 164.277C403.104 168.932 397.363 173.125 389.447 173.125C388.047 173.125 386.805 172.501 385.876 171.725C385.253 171.26 384.936 171.26 384.48 172.355C383.697 174.061 382.613 178.095 382.613 180.887C382.613 185.852 385.253 188.185 389.447 188.185C396.589 188.185 406.524 182.751 413.661 175.768C414.743 174.675 416.295 174.527 417.068 174.996C417.388 176.237 416.759 177.787 415.215 179.96C409.937 186.475 397.045 195.941 385.561 195.941C379.971 195.941 374.083 190.975 374.083 182.123V181.975Z" fill="white"/>
<path d="M761.043 141.929C761.043 148.297 753.132 156.519 748.16 159.617C743.193 162.568 736.669 165.677 730.925 167.531C729.848 167.855 728.749 168.001 727.819 168.001C726.739 168.001 724.561 167.531 724.561 166.453C724.561 165.824 724.868 164.744 725.801 163.812C727.207 162.419 730.463 160.553 733.876 158.847C741.491 154.972 752.353 150.928 752.353 141.463C752.353 133.235 743.035 130.593 737.292 130.436C735.588 130.436 734.813 130.904 734.184 132.307C732.948 134.787 731.236 139.441 727.047 150.619C724.256 158.533 719.287 171.725 715.868 183.993C715.097 186.315 715.868 186.944 717.885 187.556C720.371 188.345 725.652 188.493 728.749 188.801C731.088 188.959 731.088 190.357 729.061 191.599C727.207 193.151 722.851 194.395 716.801 194.395C714.627 194.395 713.228 194.7 712.308 195.472C711.531 196.099 710.129 197.035 708.259 197.035C705 197.035 702.209 195.008 700.972 192.685C699.88 190.665 700.667 189.116 704.853 187.716C706.251 187.251 707.179 186.167 707.951 183.836C711.84 171.419 718.821 151.399 724.413 134.013C724.868 132.307 724.561 131.993 723.32 132.769C717.741 136.028 715.405 137.429 714.469 137.429C713.385 137.429 712.308 136.964 711.677 136.028C710.901 135.093 710.901 133.705 712.772 132.143C716.644 129.044 720.529 127.18 725.336 125.321C726.428 124.856 726.899 124.545 727.207 123.763C727.977 122.051 729.689 118.952 731.543 118.952C732.948 118.952 734.492 120.195 736.205 122.837C736.827 123.613 736.977 123.763 738.537 123.763C744.117 123.763 754.517 127.643 758.091 132.463C760.724 135.868 761.043 138.976 761.043 141.769V141.929Z" fill="white"/>
<path d="M804.964 186.944C811.027 186.944 827.316 171.889 837.404 161.019C838.649 159.777 839.581 159.935 839.739 161.324C839.889 162.568 839.275 164.583 837.565 166.611C825.763 181.509 814.431 189.424 809.16 192.524C804.349 195.165 801.084 195.793 799.223 195.793C795.649 195.793 792.856 191.444 795.035 180.887C795.807 175.768 797.52 170.333 798.292 167.695C798.757 165.984 798.135 165.677 796.893 167.225C788.519 178.561 776.56 188.651 769.573 192.991C766.623 194.7 764.917 195.328 762.903 195.328C760.724 195.328 758.241 191.444 758.241 186.475C758.241 184.151 758.867 179.337 763.211 168.001C766.933 157.135 772.683 145.963 775.008 142.543C775.944 140.833 777.028 140.063 778.264 140.063C780.601 140.063 782.928 142.077 782.928 144.72C782.928 146.735 779.359 152.635 778.109 154.347C776.871 155.892 775.624 157.455 774.7 159.312C773.459 161.795 771.749 165.984 769.109 174.208C766.468 181.352 767.56 184.301 769.881 184.301C773.928 184.301 778.893 179.027 788.363 168.468C795.964 159.617 802.793 148.605 805.591 144.253C808.072 140.22 809.317 139.287 810.556 139.287C812.724 139.287 815.368 142.543 814.284 145.185C813.815 146.735 813.189 147.976 812.111 150.152C807.605 159.312 804.657 170.333 803.111 177.787C801.548 184.925 802.793 186.944 804.807 186.944H804.964Z" fill="white"/>
<path d="M836.015 183.527C836.015 186.636 837.404 187.409 839.115 187.409C841.449 187.409 845.631 185.395 850.757 181.509C860.688 173.901 869.379 156.827 869.379 151.861C869.379 149.685 868.3 147.669 865.815 147.669C863.328 147.669 857.737 150.152 852.624 154.812C847.192 159.469 843.303 163.812 840.047 169.867C838.344 172.967 836.167 178.095 836.015 183.367V183.527ZM870.469 139.592C875.435 139.592 877.763 146.119 877.763 149.071C877.763 156.519 873.571 163.969 869.228 170.645C863.793 178.719 854.328 187.409 848.737 190.823C844.08 193.765 837.875 195.793 835.081 195.793C832.281 195.793 829.337 192.524 829.337 190.508C829.18 188.959 828.875 187.716 828.247 186.944C827.316 185.852 827.316 184.768 827.631 183.219C827.939 180.737 834.453 157.605 839.115 145.812C843.467 134.787 847.807 123.145 850.292 117.713C851.843 114.137 852.624 111.197 852.929 108.396C853.093 106.687 853.865 105.445 855.252 104.201C856.499 102.961 858.835 101.253 860.688 101.253C863.021 101.253 863.636 104.201 862.399 108.244C861.621 111.037 858.203 118.645 853.093 130.756C849.673 138.819 844.708 151.704 844.08 153.725C843.303 155.892 843.929 155.892 845.481 154.183C847.031 152.797 854.173 146.269 858.364 143.784C862.556 141.304 867.519 139.592 870.312 139.592H870.469Z" fill="white"/>
</g>
<defs>
<clipPath id="clip0_93_61">
<rect width="1111.33" height="1051.01" fill="white"/>
</clipPath>
</defs>
</svg>
