<svg width="24" height="24" viewBox="0 0 24 24" fill="none" xmlns="http://www.w3.org/2000/svg">
<g clip-path="url(#clip0_4_336)">
<path d="M0.808872 8.03499H23.1639C21.5372 3.43379 17.1528 0.135818 11.9952 0.131866H11.9773C6.81999 0.135818 2.4356 3.43379 0.808872 8.03499Z" fill="black"/>
<path d="M23.1639 15.9381H0.808872C2.43665 20.5419 6.82526 23.8412 11.9865 23.8412C17.1478 23.8412 21.5361 20.5419 23.1639 15.9381Z" fill="#FFCE00"/>
<path d="M23.1639 15.9381C23.601 14.7018 23.8412 13.3725 23.8412 11.9866C23.8412 10.6006 23.6012 9.2713 23.1639 8.03499H0.80887C0.371827 9.2713 0.131836 10.6006 0.131836 11.9866C0.131836 13.3725 0.372091 14.7018 0.809134 15.9381H23.1639Z" fill="#DD0000"/>
</g>
<defs>
<clipPath id="clip0_4_336">
<rect width="24" height="24" fill="white"/>
</clipPath>
</defs>
</svg>
