<svg width="720" height="720" viewBox="0 0 720 720" fill="none" xmlns="http://www.w3.org/2000/svg">
<path fill-rule="evenodd" clip-rule="evenodd" d="M360 80C323.23 80 286.82 87.2424 252.849 101.314C218.877 115.385 188.011 136.01 162.01 162.01C136.01 188.011 115.385 218.877 101.314 252.849C87.2424 286.82 80 323.23 80 360C80 396.77 87.2424 433.18 101.314 467.151C115.385 501.123 136.01 531.989 162.01 557.99C188.011 583.99 218.877 604.615 252.849 618.686C286.82 632.758 323.23 640 360 640C434.261 640 505.48 610.5 557.99 557.99C610.5 505.48 640 434.261 640 360C640 285.739 610.5 214.52 557.99 162.01C505.48 109.5 434.261 80 360 80ZM0 360C0 264.522 37.9285 172.955 105.442 105.442C172.955 37.9285 264.522 0 360 0C455.478 0 547.045 37.9285 614.558 105.442C682.072 172.955 720 264.522 720 360C720 455.478 682.072 547.045 614.558 614.558C547.045 682.072 455.478 720 360 720C264.522 720 172.955 682.072 105.442 614.558C37.9285 547.045 0 455.478 0 360ZM320 200C320 189.391 324.214 179.217 331.716 171.716C339.217 164.214 349.391 160 360 160H360.4C371.009 160 381.183 164.214 388.684 171.716C396.186 179.217 400.4 189.391 400.4 200C400.4 210.609 396.186 220.783 388.684 228.284C381.183 235.786 371.009 240 360.4 240H360C349.391 240 339.217 235.786 331.716 228.284C324.214 220.783 320 210.609 320 200ZM320.4 520C320.4 530.609 324.614 540.783 332.116 548.284C339.617 555.786 349.791 560 360.4 560C371.009 560 381.183 555.786 388.684 548.284C396.186 540.783 400.4 530.609 400.4 520V320C400.4 309.391 396.186 299.217 388.684 291.716C381.183 284.214 371.009 280 360.4 280C349.791 280 339.617 284.214 332.116 291.716C324.614 299.217 320.4 309.391 320.4 320V520Z" fill="#F5BA00"/>
</svg>
