<svg width="24" height="24" viewBox="0 0 24 24" fill="none" xmlns="http://www.w3.org/2000/svg">
<path fill-rule="evenodd" clip-rule="evenodd" d="M11.9562 0.735535C7.69835 0.735535 4.248 3.97695 4.248 7.97789C4.248 9.0113 4.48235 9.99389 4.89459 10.8819L11.9562 23.1191L19.0151 10.8819C19.4301 9.99389 19.6631 9.01271 19.6631 7.97789C19.6631 3.97553 16.2127 0.735535 11.9562 0.735535ZM11.9887 13.4711C9.22588 13.4711 6.98824 11.2179 6.98824 8.4353C6.98824 5.65553 9.22588 3.40236 11.9887 3.40236C14.7473 3.40236 16.9849 5.65695 16.9849 8.4353C16.9849 11.2179 14.7473 13.4711 11.9887 13.4711Z" fill="white"/>
<path fill-rule="evenodd" clip-rule="evenodd" d="M15.4998 8.47623C15.4998 10.4188 13.9355 11.9943 12 11.9943C10.0701 11.9943 8.50307 10.4188 8.50307 8.47623C8.50307 6.53788 10.0687 4.96094 12 4.96094C13.9341 4.96094 15.4998 6.53788 15.4998 8.47623Z" fill="white"/>
</svg>
