<svg width="24" height="25" viewBox="0 0 24 25" fill="none" xmlns="http://www.w3.org/2000/svg">
<path d="M3.75 2L0.75 8H14.302L18.0623 2H3.75Z" fill="#F5BA00"/>
<path d="M23.25 7.25L19.875 2L13.9688 11.3319C12.6936 10.8889 11.3064 10.8889 10.0312 11.3319L8.88422 9.5H2.05406L6.11625 15.823C5.9416 16.6936 5.96239 17.5922 6.17711 18.4538C6.39183 19.3155 6.79514 20.1187 7.35793 20.8056C7.92071 21.4925 8.62895 22.0459 9.43154 22.4259C10.2341 22.8059 11.1111 23.003 11.9991 23.003C12.8871 23.003 13.764 22.8059 14.5666 22.4259C15.3692 22.0459 16.0774 21.4925 16.6402 20.8056C17.203 20.1187 17.6063 19.3155 17.821 18.4538C18.0357 17.5922 18.0565 16.6936 17.8819 15.823L23.25 7.25ZM12 20.2812C11.351 20.2812 10.7166 20.0888 10.177 19.7283C9.63744 19.3677 9.21687 18.8552 8.96852 18.2557C8.72017 17.6561 8.65519 16.9964 8.7818 16.3599C8.90841 15.7234 9.22091 15.1387 9.67981 14.6798C10.1387 14.2209 10.7234 13.9084 11.3599 13.7818C11.9964 13.6552 12.6561 13.7202 13.2557 13.9685C13.8553 14.2169 14.3677 14.6374 14.7283 15.177C15.0888 15.7166 15.2812 16.351 15.2812 17C15.2803 17.8699 14.9342 18.704 14.3191 19.3191C13.704 19.9342 12.8699 20.2803 12 20.2812Z" fill="#F5BA00"/>
<path d="M12 18.5C12.8284 18.5 13.5 17.8284 13.5 17C13.5 16.1716 12.8284 15.5 12 15.5C11.1716 15.5 10.5 16.1716 10.5 17C10.5 17.8284 11.1716 18.5 12 18.5Z" fill="#F5BA00"/>
</svg>
