<svg width="24" height="25" viewBox="0 0 24 25" fill="none" xmlns="http://www.w3.org/2000/svg">
<g clip-path="url(#clip0_74_144)">
<path fill-rule="evenodd" clip-rule="evenodd" d="M18.0405 15.38L24 21.425L21 24.5L14.8875 18.536C13.3458 19.4954 11.5658 20.0026 9.75 20C4.365 20 0 15.6245 0 10.25C0 4.865 4.3755 0.5 9.75 0.5C15.135 0.5 19.5 4.8755 19.5 10.25C19.5027 12.0628 18.9971 13.8401 18.0405 15.38ZM2.9955 10.178C2.9955 13.898 6.0165 16.928 9.7455 16.928C13.4655 16.928 16.4955 13.9055 16.4955 10.178C16.4955 6.458 13.473 3.428 9.7455 3.428C6.0255 3.428 2.9955 6.449 2.9955 10.178Z" fill="#F5BA00"/>
</g>
<defs>
<clipPath id="clip0_74_144">
<rect width="24" height="24" fill="white" transform="translate(0 0.5)"/>
</clipPath>
</defs>
</svg>
